<svg width="1226" height="252" viewBox="0 0 1226 252" fill="none" xmlns="http://www.w3.org/2000/svg">
<path d="M59.7363 67.7324C63.2559 70.0098 67.6035 72.7012 72.7793 75.8066C78.1621 78.7051 83.3379 81.8105 88.3066 85.123C93.2754 88.4355 97.5195 91.748 101.039 95.0605C104.766 98.373 106.629 101.375 106.629 104.066C106.629 107.586 105.49 110.691 103.213 113.383C100.936 116.074 98.4512 117.42 95.7598 117.42C94.1035 117.42 92.5508 116.799 91.1016 115.557C83.2344 109.967 75.9883 104.998 69.3633 100.65C62.7383 96.3027 56.0098 92.0586 49.1777 87.918C47.3145 90.8164 44.9336 94.2324 42.0352 98.166C39.1367 101.893 35.9277 105.516 32.4082 109.035C29.0957 112.555 25.6797 115.557 22.1602 118.041C18.8477 120.525 15.7422 121.768 12.8438 121.768C9.32422 121.768 6.42578 120.629 4.14844 118.352C1.87109 116.074 0.732422 113.486 0.732422 110.588C0.732422 107.689 1.87109 105.412 4.14844 103.756C15.3281 93.6113 24.4375 82.1211 31.4766 69.2852C38.7227 56.2422 43.4844 42.8887 45.7617 29.2246C46.3828 25.9121 47.5215 23.6348 49.1777 22.3926C50.834 21.1504 52.8008 20.5293 55.0781 20.5293C58.8047 20.5293 62.2207 21.7715 65.3262 24.2559C68.4316 26.5332 69.9844 28.8105 69.9844 31.0879C69.1562 36.0566 67.9141 41.75 66.2578 48.168C64.8086 54.3789 62.6348 60.9004 59.7363 67.7324ZM165.633 11.834C165.633 8.31445 166.771 5.51953 169.049 3.44922C171.533 1.37891 174.328 0.34375 177.434 0.34375C180.332 0.34375 183.023 1.27539 185.508 3.13867C187.992 4.79492 189.234 7.48633 189.234 11.2129C189.234 26.1191 189.545 42.5781 190.166 60.5898C190.787 78.3945 191.719 96.7168 192.961 115.557C192.961 119.49 191.719 122.285 189.234 123.941C186.957 125.391 184.266 126.115 181.16 126.115C178.055 126.115 175.156 125.287 172.465 123.631C169.98 121.768 168.738 119.283 168.738 116.178C168.324 108.311 167.91 100.34 167.496 92.2656C167.082 84.1914 166.668 76.3242 166.254 68.6641C166.047 60.7969 165.84 53.3438 165.633 46.3047C165.633 39.2656 165.633 32.8477 165.633 27.0508V11.834ZM87.9961 176.424C95.4492 175.182 102.695 174.043 109.734 173.008C116.98 171.973 125.262 171.455 134.578 171.455C140.789 171.455 145.758 172.49 149.484 174.561C153.418 176.424 156.42 179.012 158.49 182.324C160.768 185.43 162.217 189.053 162.838 193.193C163.666 197.334 164.08 201.578 164.08 205.926C164.08 212.965 163.666 219.797 162.838 226.422C162.01 233.254 161.078 239.361 160.043 244.744C159.629 247.229 158.49 248.988 156.627 250.023C154.764 251.059 152.693 251.576 150.416 251.576C146.896 251.576 143.791 250.541 141.1 248.471C138.615 246.607 137.373 244.227 137.373 241.328C137.373 240.293 137.477 239.568 137.684 239.154C138.719 234.186 139.443 228.906 139.857 223.316C140.479 217.727 140.789 212.758 140.789 208.41C140.789 202.406 139.65 198.576 137.373 196.92C135.303 195.264 132.404 194.436 128.678 194.436C124.123 194.436 120.086 194.643 116.566 195.057C113.254 195.471 110.148 195.988 107.25 196.609C104.352 197.23 101.557 197.748 98.8652 198.162C96.1738 198.576 93.3789 198.783 90.4805 198.783C87.9961 198.783 85.9258 197.438 84.2695 194.746C82.8203 192.055 82.0957 189.053 82.0957 185.74C82.0957 183.463 82.5098 181.496 83.3379 179.84C84.373 177.977 85.9258 176.838 87.9961 176.424ZM304.758 136.984C312.004 142.781 319.354 146.611 326.807 148.475C334.26 150.338 342.438 151.994 351.34 153.443C354.652 153.857 356.826 155.203 357.861 157.48C359.104 159.758 359.725 162.035 359.725 164.312C359.104 167.211 357.758 169.488 355.688 171.145C353.824 172.594 350.822 173.318 346.682 173.318C337.986 173.318 328.877 171.662 319.354 168.35C310.037 164.83 301.859 160.896 294.82 156.549C293.371 159.033 291.197 162.242 288.299 166.176C285.607 169.902 282.605 173.629 279.293 177.355C275.98 180.875 272.564 183.98 269.045 186.672C265.732 189.363 262.627 190.709 259.729 190.709C256.416 190.709 253.518 189.57 251.033 187.293C248.756 184.809 247.617 182.221 247.617 179.529C247.617 177.045 248.652 174.768 250.723 172.697C262.523 162.553 271.529 150.959 277.74 137.916C284.158 124.666 288.609 111.209 291.094 97.5449C291.508 94.6465 292.439 92.5762 293.889 91.334C295.545 90.0918 297.408 89.4707 299.479 89.4707C302.791 89.4707 306 90.7129 309.105 93.1973C312.418 95.4746 314.074 97.959 314.074 100.65C313.246 105.619 312.107 111.209 310.658 117.42C309.416 123.631 307.449 130.152 304.758 136.984ZM391.09 62.7637C389.434 60.6934 388.605 58.8301 388.605 57.1738C388.605 54.4824 389.848 52.1016 392.332 50.0312C395.023 47.7539 398.025 46.6152 401.338 46.6152C405.064 46.6152 408.273 48.0645 410.965 50.9629L422.145 66.4902C425.25 70.8379 427.631 75.3926 429.287 80.1543C430.943 84.709 432.082 89.4707 432.703 94.4395C433.324 99.2012 433.738 104.066 433.945 109.035C434.152 113.797 434.463 118.559 434.877 123.32C442.537 123.527 450.508 123.631 458.789 123.631C467.07 123.631 474.316 123.631 480.527 123.631C483.012 124.045 484.771 125.08 485.807 126.736C487.049 128.393 487.67 130.256 487.67 132.326C487.67 135.846 486.531 139.158 484.254 142.264C481.977 145.162 479.078 146.611 475.559 146.611C468.934 146.611 462.102 146.715 455.062 146.922C448.23 147.129 441.502 147.232 434.877 147.232C434.67 156.549 434.049 165.555 433.014 174.25C432.186 182.945 431.047 191.33 429.598 199.404C428.977 203.338 427.217 206.133 424.318 207.789C421.627 209.238 418.832 209.963 415.934 209.963C413.035 209.963 410.551 209.342 408.48 208.1C406.617 206.65 405.686 204.58 405.686 201.889C405.686 201.061 405.789 200.439 405.996 200.025C407.859 190.709 409.205 180.771 410.033 170.213C410.861 159.447 411.275 148.992 411.275 138.848C411.275 128.289 410.861 118.559 410.033 109.656C409.412 100.754 408.48 93.1973 407.238 86.9863C405.375 83.2598 402.994 79.4297 400.096 75.4961C397.404 71.3555 394.402 67.1113 391.09 62.7637ZM515.309 88.2285C519.449 88.6426 526.178 88.9531 535.494 89.1602C544.811 89.1602 554.748 89.1602 565.307 89.1602C575.865 89.1602 585.699 89.1602 594.809 89.1602C604.125 88.9531 610.957 88.8496 615.305 88.8496C618.203 89.2637 620.377 90.7129 621.826 93.1973C623.482 95.4746 624.311 97.959 624.311 100.65C624.311 105.412 623.068 108.518 620.584 109.967C618.307 111.416 614.477 112.141 609.094 112.141H601.641C602.676 117.109 603.607 122.389 604.436 127.979C605.264 133.361 605.678 139.469 605.678 146.301C605.678 150.027 605.574 153.857 605.367 157.791C605.367 161.518 605.16 164.83 604.746 167.729H617.789C620.688 168.143 622.861 169.592 624.311 172.076C625.967 174.354 626.795 176.838 626.795 179.529C626.795 182.428 626.07 185.016 624.621 187.293C623.172 189.57 620.895 190.709 617.789 190.709C612.82 190.709 605.367 190.812 595.43 191.02C585.699 191.227 575.244 191.33 564.064 191.33C554.334 191.33 545.639 191.434 537.979 191.641C530.318 191.641 523.797 191.434 518.414 191.02C513.031 190.398 508.891 189.363 505.992 187.914C503.301 186.258 501.955 183.67 501.955 180.15C501.955 176.838 503.094 173.836 505.371 171.145C507.648 168.453 510.754 167.107 514.688 167.107C515.93 167.521 517.689 167.729 519.967 167.729C522.451 167.729 525.143 167.729 528.041 167.729C527.42 163.381 527.006 158.516 526.799 153.133C526.592 147.543 526.488 142.885 526.488 139.158C526.488 134.189 526.488 129.531 526.488 125.184C526.695 120.629 527.109 116.178 527.73 111.83C518 111.83 511.479 111.105 508.166 109.656C504.854 108.207 503.197 104.791 503.197 99.4082C503.611 96.5098 504.854 93.9219 506.924 91.6445C508.994 89.3672 511.789 88.2285 515.309 88.2285ZM576.486 112.141C574.209 112.348 571.932 112.451 569.654 112.451C567.584 112.451 565.41 112.451 563.133 112.451C560.855 112.451 558.682 112.451 556.611 112.451C554.541 112.451 552.367 112.348 550.09 112.141C549.676 113.383 549.469 114.625 549.469 115.867C549.469 117.109 549.469 118.352 549.469 119.594V124.562V136.674C549.262 138.537 549.055 140.504 548.848 142.574C548.848 144.438 548.848 146.404 548.848 148.475C548.848 155.514 549.365 161.932 550.4 167.729C552.885 167.936 555.369 168.039 557.854 168.039C560.545 168.039 563.236 168.039 565.928 168.039C568.826 168.039 571.518 168.039 574.002 168.039C576.693 168.039 579.385 167.936 582.076 167.729C582.076 165.451 582.076 163.07 582.076 160.586C582.283 158.102 582.387 155.514 582.387 152.822C582.387 144.334 581.869 136.777 580.834 130.152C579.799 123.527 578.35 117.523 576.486 112.141ZM646.98 62.7637C645.324 60.6934 644.496 58.8301 644.496 57.1738C644.496 54.4824 645.738 52.1016 648.223 50.0312C650.914 47.7539 653.916 46.6152 657.229 46.6152C660.955 46.6152 664.164 48.0645 666.855 50.9629L678.035 66.4902C681.141 70.8379 683.521 75.3926 685.178 80.1543C686.834 84.709 687.973 89.4707 688.594 94.4395C689.215 99.2012 689.629 104.066 689.836 109.035C690.043 113.797 690.354 118.559 690.768 123.32C698.428 123.527 706.398 123.631 714.68 123.631C722.961 123.631 730.207 123.631 736.418 123.631C738.902 124.045 740.662 125.08 741.697 126.736C742.939 128.393 743.561 130.256 743.561 132.326C743.561 135.846 742.422 139.158 740.145 142.264C737.867 145.162 734.969 146.611 731.449 146.611C724.824 146.611 717.992 146.715 710.953 146.922C704.121 147.129 697.393 147.232 690.768 147.232C690.561 156.549 689.939 165.555 688.904 174.25C688.076 182.945 686.938 191.33 685.488 199.404C684.867 203.338 683.107 206.133 680.209 207.789C677.518 209.238 674.723 209.963 671.824 209.963C668.926 209.963 666.441 209.342 664.371 208.1C662.508 206.65 661.576 204.58 661.576 201.889C661.576 201.061 661.68 200.439 661.887 200.025C663.75 190.709 665.096 180.771 665.924 170.213C666.752 159.447 667.166 148.992 667.166 138.848C667.166 128.289 666.752 118.559 665.924 109.656C665.303 100.754 664.371 93.1973 663.129 86.9863C661.266 83.2598 658.885 79.4297 655.986 75.4961C653.295 71.3555 650.293 67.1113 646.98 62.7637ZM817.16 39.1621C819.23 39.3691 822.025 39.5762 825.545 39.7832C829.064 39.7832 833.102 39.8867 837.656 40.0938C842.211 40.0938 847.076 40.0938 852.252 40.0938C857.428 40.0938 862.707 40.0938 868.09 40.0938C878.648 40.0938 888.689 40.0938 898.213 40.0938C907.736 39.8867 914.672 39.7832 919.02 39.7832C922.125 40.1973 924.195 41.6465 925.23 44.1309C926.473 46.4082 927.094 48.8926 927.094 51.584C927.094 55.3105 926.059 58.002 923.988 59.6582C922.125 61.3145 919.434 62.4531 915.914 63.0742C912.395 63.4883 908.15 63.6953 903.182 63.6953C898.213 63.4883 892.623 63.3848 886.412 63.3848C879.994 63.3848 873.266 63.3848 866.227 63.3848C859.395 63.3848 852.873 63.2812 846.662 63.0742C846.662 66.1797 846.662 69.3887 846.662 72.7012C846.662 75.8066 846.766 79.0156 846.973 82.3281C851.527 82.7422 856.807 83.0527 862.811 83.2598C869.021 83.2598 875.232 83.2598 881.443 83.2598H913.43C916.328 83.6738 918.502 85.0195 919.951 87.2969C921.4 89.5742 922.125 92.0586 922.125 94.75C922.125 98.4766 920.883 101.168 918.398 102.824C915.914 104.48 912.705 105.619 908.771 106.24C905.045 106.654 900.697 106.758 895.729 106.551C890.76 106.344 885.791 106.24 880.822 106.24C875.025 106.24 869.229 106.24 863.432 106.24C857.635 106.033 852.355 105.723 847.594 105.309C847.594 109.035 847.697 112.451 847.904 115.557C848.111 118.455 848.422 120.939 848.836 123.01C851.527 123.424 854.943 123.941 859.084 124.562C863.225 124.977 867.572 125.391 872.127 125.805C876.889 126.219 881.754 126.529 886.723 126.736C891.898 126.943 896.867 127.047 901.629 127.047C904.527 127.047 907.219 126.943 909.703 126.736C912.188 126.322 914.568 126.115 916.846 126.115C919.744 126.115 922.021 127.357 923.678 129.842C925.541 132.326 926.473 135.018 926.473 137.916C926.473 141.436 925.438 144.023 923.367 145.68C921.297 147.129 918.709 148.164 915.604 148.785C912.498 149.406 909.082 149.717 905.355 149.717C901.629 149.51 898.109 149.406 894.797 149.406C885.895 149.406 876.889 149.096 867.779 148.475C858.877 147.646 851.527 146.818 845.73 145.99C840.348 144.955 836.311 143.816 833.619 142.574C831.135 141.332 829.271 139.158 828.029 136.053C826.787 132.947 825.855 128.393 825.234 122.389C824.82 116.178 824.199 107.689 823.371 96.9238C823.164 90.9199 822.854 84.916 822.439 78.9121C822.232 72.9082 822.129 67.4219 822.129 62.4531H817.781C813.227 62.4531 809.811 61.5215 807.533 59.6582C805.463 57.5879 804.428 55.1035 804.428 52.2051C804.428 48.8926 805.566 45.8906 807.844 43.1992C810.121 40.5078 813.227 39.1621 817.16 39.1621ZM789.211 185.119C797.492 186.154 807.43 186.982 819.023 187.604C830.617 188.225 843.039 188.535 856.289 188.535C872.438 188.535 888.896 188.225 905.666 187.604C922.436 186.775 937.859 185.533 951.938 183.877C954.629 181.6 957.32 179.943 960.012 178.908C962.91 177.873 966.223 176.631 969.949 175.182C972.641 175.803 974.814 177.77 976.471 181.082C978.127 184.188 978.955 187.293 978.955 190.398C978.955 193.504 978.23 196.299 976.781 198.783C975.332 201.268 973.055 202.717 969.949 203.131C954.008 205.615 936.617 207.582 917.777 209.031C898.938 210.48 880.512 211.102 862.5 210.895C848.215 210.895 834.551 210.688 821.508 210.273C808.672 209.859 797.285 208.928 787.348 207.479C784.035 207.064 781.551 205.822 779.895 203.752C778.445 201.475 777.721 199.197 777.721 196.92C777.721 194.021 778.652 191.33 780.516 188.846C782.379 186.361 785.277 185.119 789.211 185.119ZM1030.82 101.271C1030.82 97.752 1032.06 95.1641 1034.54 93.5078C1037.03 91.8516 1039.72 91.0234 1042.62 91.0234C1046.34 91.0234 1049.04 92.2656 1050.69 94.75C1052.55 97.2344 1053.69 100.34 1054.11 104.066C1054.73 107.793 1054.94 111.934 1054.73 116.488C1054.52 120.836 1054.52 124.873 1054.73 128.6C1054.94 133.154 1055.14 137.605 1055.35 141.953C1055.76 146.301 1056.28 150.338 1056.9 154.064C1061.66 155.1 1067.98 155.928 1075.85 156.549C1083.92 156.963 1092.2 157.17 1100.69 157.17C1104.83 157.17 1108.87 156.963 1112.8 156.549C1116.73 156.135 1120.36 155.928 1123.67 155.928C1126.57 155.928 1128.74 157.066 1130.19 159.344C1131.64 161.621 1132.37 164.209 1132.37 167.107C1132.37 170.834 1131.12 173.525 1128.64 175.182C1126.15 176.838 1123.05 177.977 1119.32 178.598C1115.6 179.219 1111.56 179.529 1107.21 179.529C1102.86 179.322 1098.83 179.219 1095.1 179.219C1087.03 179.219 1079.37 179.219 1072.12 179.219C1065.08 179.219 1058.77 178.598 1053.18 177.355C1047.79 176.113 1043.34 174.043 1039.82 171.145C1036.51 168.246 1034.54 164.002 1033.92 158.412C1033.09 149.717 1032.27 140.297 1031.44 130.152C1030.82 119.801 1030.61 110.174 1030.82 101.271ZM1177.39 49.7207C1176.15 47.8574 1175.53 45.9941 1175.53 44.1309C1175.53 41.0254 1176.77 38.2305 1179.26 35.7461C1181.95 33.0547 1185.16 31.709 1188.88 31.709C1191.78 31.709 1194.68 33.0547 1197.58 35.7461C1200.48 38.2305 1203.17 41.543 1205.65 45.6836C1208.14 49.6172 1210.31 53.9648 1212.18 58.7266C1214.25 63.2812 1215.9 67.5254 1217.14 71.459C1218.59 76.8418 1219.84 83.2598 1220.87 90.7129C1222.11 98.166 1223.04 106.033 1223.67 114.314C1224.49 122.389 1225.01 130.67 1225.22 139.158C1225.63 147.439 1225.84 155.307 1225.84 162.76C1225.84 166.9 1225.84 170.834 1225.84 174.561C1225.84 178.287 1225.43 181.6 1224.6 184.498C1223.77 187.396 1222.42 189.674 1220.56 191.33C1218.9 192.986 1216.32 193.814 1212.8 193.814C1209.69 193.814 1207 193.09 1204.72 191.641C1202.65 189.984 1201.62 187.604 1201.62 184.498V165.555C1201.62 157.066 1201.51 148.578 1201.31 140.09C1201.1 131.602 1200.58 123.32 1199.75 115.246C1195.82 115.453 1191.37 115.867 1186.4 116.488C1181.43 116.902 1176.36 117.523 1171.18 118.352C1166.21 119.18 1161.35 120.111 1156.59 121.146C1152.03 121.975 1148 122.803 1144.48 123.631C1143.86 123.838 1143.03 123.941 1141.99 123.941C1138.89 123.941 1136.4 122.596 1134.54 119.904C1132.88 117.213 1132.05 114.418 1132.05 111.52C1132.05 107.793 1134.23 104.791 1138.58 102.514C1142.92 100.236 1148.31 98.4766 1154.72 97.2344C1161.35 95.9922 1168.39 95.1641 1175.84 94.75C1183.5 94.1289 1190.44 93.6113 1196.65 93.1973C1196.03 90.7129 1195.51 88.2285 1195.1 85.7441C1194.68 83.2598 1194.16 80.7754 1193.54 78.291C1192.51 74.5645 1190.44 70.2168 1187.33 65.248C1184.43 60.2793 1181.12 55.1035 1177.39 49.7207Z" fill="#F5BE00"/>
</svg>
